<svg width="256" height="256" viewBox="0 0 256 256" fill="none" xmlns="http://www.w3.org/2000/svg">
<rect x="5" y="5" width="246" height="246" rx="27" fill="#FBFBFB" stroke="#3F7AB5" stroke-width="10"/>
<line x1="10.019" y1="91.5417" x2="245.995" y2="91.5417" stroke="#AEBCC4" stroke-width="8"/>
<line x1="86.8186" y1="10.0083" x2="86.8186" y2="246.012" stroke="#AEBCC4" stroke-width="8"/>
<line x1="171.559" y1="10.0071" x2="171.559" y2="246.012" stroke="#AEBCC4" stroke-width="8"/>
<line x1="10.0117" y1="171.598" x2="246.035" y2="171.598" stroke="#AEBCC4" stroke-width="8"/>
<path d="M211.06 53.439L189.009 34.9354" stroke="#274057" stroke-width="10" stroke-linecap="round"/>
<path d="M211.06 53.439L189.009 71.9425" stroke="#274057" stroke-width="10" stroke-linecap="round"/>
<path d="M209.146 59.634C212.46 59.634 215.146 56.9477 215.146 53.634C215.146 50.3203 212.459 47.634 209.146 47.634L209.146 59.634ZM126.13 128.676L120.13 128.676V128.676L126.13 128.676ZM126.131 65.634L120.131 65.634L126.131 65.634ZM138.131 53.6341L138.131 47.6341L138.131 53.6341ZM126.13 197.71L120.13 197.71L126.13 197.71ZM45.0959 209.71L45.0959 215.71L114.13 215.71L114.13 209.71L114.13 203.71L45.0959 203.71L45.0959 209.71ZM126.13 197.71L132.13 197.71L132.13 128.676L126.13 128.676L120.13 128.676V197.71L126.13 197.71ZM126.13 128.676L132.13 128.676L132.131 65.6341L126.131 65.634L120.131 65.634L120.13 128.676L126.13 128.676ZM138.131 53.6341L138.131 59.6341L209.146 59.634L209.146 53.634L209.146 47.634L138.131 47.6341L138.131 53.6341ZM126.131 65.634L132.131 65.6341C132.131 62.3204 134.817 59.6341 138.131 59.6341L138.131 53.6341L138.131 47.6341C128.189 47.6341 120.131 55.6929 120.131 65.634L126.131 65.634ZM114.13 209.71L114.13 215.71C124.071 215.71 132.13 207.651 132.13 197.71L126.13 197.71L120.13 197.71C120.13 201.024 117.444 203.71 114.13 203.71L114.13 209.71Z" fill="#274057"/>
<path d="M210.646 138.891C213.96 138.891 216.646 136.205 216.646 132.891C216.646 129.578 213.959 126.891 210.646 126.891L210.646 138.891ZM59.0561 132.891L59.0561 126.891L59.0561 132.891ZM45.6885 43.2777L39.6894 43.3833L41.0589 121.208L47.0579 121.103L53.057 120.997L51.6875 43.1721L45.6885 43.2777ZM59.0561 132.891L59.0561 138.891L210.646 138.891L210.646 132.891L210.646 126.891L59.0561 126.891L59.0561 132.891ZM47.0579 121.103L41.0589 121.208C41.2316 131.024 49.2384 138.891 59.0561 138.891L59.0561 132.891L59.0561 126.891C55.7835 126.891 53.1146 124.269 53.057 120.997L47.0579 121.103Z" fill="#274057"/>
<circle cx="45.4497" cy="48.0452" r="20" fill="#3F7AB5"/>
<circle cx="126.437" cy="132.073" r="20" fill="#3F7AB5"/>
<circle cx="45.4497" cy="210.064" r="20" fill="#3F7AB5"/>
<circle cx="210.407" cy="210.064" r="20" fill="#3F7AB5"/>
<path d="M213.23 132.989L191.178 114.485" stroke="#274057" stroke-width="10" stroke-linecap="round"/>
<path d="M213.23 132.989L191.178 151.492" stroke="#274057" stroke-width="10" stroke-linecap="round"/>
</svg>
